<?xml version="1.0" encoding="UTF-8" standalone="no"?>
<!DOCTYPE svg PUBLIC "-//W3C//DTD SVG 1.1//EN"
 "http://www.w3.org/Graphics/SVG/1.1/DTD/svg11.dtd">
<!-- Generated by graphviz version 2.43.0 (0)
 -->
<!-- Title: G Pages: 1 -->
<svg width="1280pt" height="1036pt"
 viewBox="0.00 0.00 1279.94 1035.86" xmlns="http://www.w3.org/2000/svg" xmlns:xlink="http://www.w3.org/1999/xlink">
<g id="graph0" class="graph" transform="scale(1 1) rotate(0) translate(43.2 992.66)">
<title>G</title>
<polygon fill="#f7f4ec" stroke="transparent" points="-43.2,43.2 -43.2,-992.66 1236.74,-992.66 1236.74,43.2 -43.2,43.2"/>
<text text-anchor="start" x="165.27" y="-928.86" font-family="DejaVu Sans" font-weight="bold" font-size="22.00" fill="#1d4530">Multi&#45;Vendor Supply Chain Management: ER Diagram (Chen notation)</text>
<text text-anchor="start" x="206.77" y="-913.26" font-family="DejaVu Sans" font-size="14.00" fill="#6d675c">Underlined = primary key, (FK) = foreign key, (UQ) = unique. 1 and N mark the cardinality of each relationship.</text>
<!-- VENDORS&#45;&#45;VENDORS_vendor_id -->
<g id="edge1" class="edge">
<title>VENDORS&#45;&#45;VENDORS_vendor_id</title>
<path fill="none" stroke="#cfc7b2" stroke-width="1.2" d="M229.24,-735.87C238.6,-761.47 251.37,-796.35 259.62,-818.91"/>
</g>
<!-- VENDORS&#45;&#45;VENDORS_company_name -->
<g id="edge2" class="edge">
<title>VENDORS&#45;&#45;VENDORS_company_name</title>
<path fill="none" stroke="#cfc7b2" stroke-width="1.2" d="M192.55,-735.86C176.99,-756.56 157.32,-782.73 143.59,-800.99"/>
</g>
<!-- VENDORS&#45;&#45;VENDORS_email -->
<g id="edge3" class="edge">
<title>VENDORS&#45;&#45;VENDORS_email</title>
<path fill="none" stroke="#cfc7b2" stroke-width="1.2" d="M133.85,-703.05C131.29,-703.05 128.75,-703.05 126.22,-703.05"/>
</g>
<!-- VENDORS&#45;&#45;VENDORS_password_hash -->
<g id="edge4" class="edge">
<title>VENDORS&#45;&#45;VENDORS_password_hash</title>
<path fill="none" stroke="#cfc7b2" stroke-width="1.2" d="M193.15,-670.51C177.71,-649.64 158.09,-623.11 144.48,-604.73"/>
</g>
<!-- VENDORS&#45;&#45;VENDORS_created_at -->
<g id="edge5" class="edge">
<title>VENDORS&#45;&#45;VENDORS_created_at</title>
<path fill="none" stroke="#cfc7b2" stroke-width="1.2" d="M228.88,-670.26C237.96,-644.69 250.35,-609.85 258.36,-587.31"/>
</g>
<!-- VENDORS&#45;&#45;rel_supplies -->
<g id="edge30" class="edge">
<title>VENDORS&#45;&#45;rel_supplies</title>
<path fill="none" stroke="#1d4530" stroke-width="2" d="M300.28,-703.09C347.76,-703.11 406.87,-703.15 453.05,-703.17"/>
<text text-anchor="middle" x="421.05" y="-699.65" font-family="DejaVu Sans" font-size="15.00" fill="#1d4530">1</text>
</g>
<!-- PRODUCTS&#45;&#45;PRODUCTS_product_id -->
<g id="edge6" class="edge">
<title>PRODUCTS&#45;&#45;PRODUCTS_product_id</title>
<path fill="none" stroke="#cfc7b2" stroke-width="1.2" d="M888.32,-671.42C908.33,-645.55 935.69,-610.17 953.08,-587.68"/>
</g>
<!-- PRODUCTS&#45;&#45;PRODUCTS_vendor_id -->
<g id="edge7" class="edge">
<title>PRODUCTS&#45;&#45;PRODUCTS_vendor_id</title>
<path fill="none" stroke="#cfc7b2" stroke-width="1.2" d="M946.1,-675.82C962.23,-670.32 978.56,-664.74 992.92,-659.85"/>
</g>
<!-- PRODUCTS&#45;&#45;PRODUCTS_product_name -->
<g id="edge8" class="edge">
<title>PRODUCTS&#45;&#45;PRODUCTS_product_name</title>
<path fill="none" stroke="#cfc7b2" stroke-width="1.2" d="M946.05,-722.3C963.36,-726.07 981.19,-729.96 997.16,-733.44"/>
</g>
<!-- PRODUCTS&#45;&#45;PRODUCTS_price -->
<g id="edge9" class="edge">
<title>PRODUCTS&#45;&#45;PRODUCTS_price</title>
<path fill="none" stroke="#cfc7b2" stroke-width="1.2" d="M901.54,-736.9C928.31,-759.6 963.19,-789.18 986.35,-808.83"/>
</g>
<!-- PRODUCTS&#45;&#45;PRODUCTS_quantity -->
<g id="edge10" class="edge">
<title>PRODUCTS&#45;&#45;PRODUCTS_quantity</title>
<path fill="none" stroke="#cfc7b2" stroke-width="1.2" d="M866.74,-736.98C870.84,-772.76 877.31,-829.11 880.88,-860.3"/>
</g>
<!-- PRODUCTS&#45;&#45;PRODUCTS_is_active -->
<g id="edge11" class="edge">
<title>PRODUCTS&#45;&#45;PRODUCTS_is_active</title>
<path fill="none" stroke="#cfc7b2" stroke-width="1.2" d="M838.06,-736.86C816.25,-765.45 785.18,-806.2 766.21,-831.07"/>
</g>
<!-- PRODUCTS&#45;&#45;PRODUCTS_created_at -->
<g id="edge12" class="edge">
<title>PRODUCTS&#45;&#45;PRODUCTS_created_at</title>
<path fill="none" stroke="#cfc7b2" stroke-width="1.2" d="M784.9,-736.73C765.75,-744.71 745.99,-752.95 729.34,-759.89"/>
</g>
<!-- PRODUCTS&#45;&#45;PRODUCTS_updated_at -->
<g id="edge13" class="edge">
<title>PRODUCTS&#45;&#45;PRODUCTS_updated_at</title>
<path fill="none" stroke="#cfc7b2" stroke-width="1.2" d="M779.71,-690.34C764.66,-687.84 749.28,-685.28 735.19,-682.94"/>
</g>
<!-- PRODUCTS&#45;&#45;rel_is ordered in -->
<g id="edge32" class="edge">
<title>PRODUCTS&#45;&#45;rel_is ordered in</title>
<path fill="none" stroke="#1d4530" stroke-width="2" d="M856.81,-671.56C849.68,-633.84 837.95,-571.82 830.33,-531.54"/>
<text text-anchor="middle" x="836.28" y="-559.48" font-family="DejaVu Sans" font-size="15.00" fill="#1d4530">1</text>
</g>
<!-- CUSTOMERS&#45;&#45;CUSTOMERS_customer_id -->
<g id="edge14" class="edge">
<title>CUSTOMERS&#45;&#45;CUSTOMERS_customer_id</title>
<path fill="none" stroke="#cfc7b2" stroke-width="1.2" d="M228,-286.47C236.52,-312.02 248.13,-346.84 255.65,-369.36"/>
</g>
<!-- CUSTOMERS&#45;&#45;CUSTOMERS_full_name -->
<g id="edge15" class="edge">
<title>CUSTOMERS&#45;&#45;CUSTOMERS_full_name</title>
<path fill="none" stroke="#cfc7b2" stroke-width="1.2" d="M193.26,-286.32C178,-307.23 158.59,-333.82 145.14,-352.25"/>
</g>
<!-- CUSTOMERS&#45;&#45;CUSTOMERS_email -->
<g id="edge16" class="edge">
<title>CUSTOMERS&#45;&#45;CUSTOMERS_email</title>
<path fill="none" stroke="#cfc7b2" stroke-width="1.2" d="M133.72,-253.71C131.17,-253.71 128.63,-253.71 126.1,-253.71"/>
</g>
<!-- CUSTOMERS&#45;&#45;CUSTOMERS_password_hash -->
<g id="edge17" class="edge">
<title>CUSTOMERS&#45;&#45;CUSTOMERS_password_hash</title>
<path fill="none" stroke="#cfc7b2" stroke-width="1.2" d="M193,-221.16C177.56,-200.29 157.94,-173.76 144.33,-155.36"/>
</g>
<!-- CUSTOMERS&#45;&#45;CUSTOMERS_created_at -->
<g id="edge18" class="edge">
<title>CUSTOMERS&#45;&#45;CUSTOMERS_created_at</title>
<path fill="none" stroke="#cfc7b2" stroke-width="1.2" d="M228.71,-220.93C237.79,-195.37 250.16,-160.53 258.16,-138"/>
</g>
<!-- CUSTOMERS&#45;&#45;rel_places -->
<g id="edge34" class="edge">
<title>CUSTOMERS&#45;&#45;rel_places</title>
<path fill="none" stroke="#1d4530" stroke-width="2" d="M300.42,-254.81C343.7,-255.39 396.13,-256.08 437.98,-256.64"/>
<text text-anchor="middle" x="405.98" y="-252.71" font-family="DejaVu Sans" font-size="15.00" fill="#1d4530">1</text>
</g>
<!-- ORDERS&#45;&#45;ORDERS_order_id -->
<g id="edge19" class="edge">
<title>ORDERS&#45;&#45;ORDERS_order_id</title>
<path fill="none" stroke="#cfc7b2" stroke-width="1.2" d="M896.9,-288.42C916.04,-326.35 947.13,-387.94 963.7,-420.77"/>
</g>
<!-- ORDERS&#45;&#45;ORDERS_customer_id -->
<g id="edge20" class="edge">
<title>ORDERS&#45;&#45;ORDERS_customer_id</title>
<path fill="none" stroke="#cfc7b2" stroke-width="1.2" d="M919.64,-288.64C949.47,-313.63 989.65,-347.3 1015.37,-368.84"/>
</g>
<!-- ORDERS&#45;&#45;ORDERS_product_id -->
<g id="edge21" class="edge">
<title>ORDERS&#45;&#45;ORDERS_product_id</title>
<path fill="none" stroke="#cfc7b2" stroke-width="1.2" d="M963.45,-280.33C992.31,-288.86 1023.71,-298.13 1048.87,-305.57"/>
</g>
<!-- ORDERS&#45;&#45;ORDERS_quantity -->
<g id="edge22" class="edge">
<title>ORDERS&#45;&#45;ORDERS_quantity</title>
<path fill="none" stroke="#cfc7b2" stroke-width="1.2" d="M963.47,-250.7C996.12,-248.69 1032.98,-246.42 1063.29,-244.56"/>
</g>
<!-- ORDERS&#45;&#45;ORDERS_unit_price -->
<g id="edge23" class="edge">
<title>ORDERS&#45;&#45;ORDERS_unit_price</title>
<path fill="none" stroke="#cfc7b2" stroke-width="1.2" d="M963.72,-225.65C1004.64,-210.83 1052.31,-193.57 1086.19,-181.3"/>
</g>
<!-- ORDERS&#45;&#45;ORDERS_status -->
<g id="edge24" class="edge">
<title>ORDERS&#45;&#45;ORDERS_status</title>
<path fill="none" stroke="#cfc7b2" stroke-width="1.2" d="M929.33,-223.22C974.96,-192.82 1041.58,-148.43 1079.78,-122.97"/>
</g>
<!-- ORDERS&#45;&#45;ORDERS_cancellation_reason -->
<g id="edge25" class="edge">
<title>ORDERS&#45;&#45;ORDERS_cancellation_reason</title>
<path fill="none" stroke="#cfc7b2" stroke-width="1.2" d="M906.52,-223.2C940.24,-181.04 998.08,-108.73 1027.19,-72.33"/>
</g>
<!-- ORDERS&#45;&#45;ORDERS_shipping_address -->
<g id="edge26" class="edge">
<title>ORDERS&#45;&#45;ORDERS_shipping_address</title>
<path fill="none" stroke="#cfc7b2" stroke-width="1.2" d="M879.88,-222.87C879.06,-174.77 877.57,-86.51 876.87,-45.09"/>
</g>
<!-- ORDERS&#45;&#45;ORDERS_contact_phone -->
<g id="edge27" class="edge">
<title>ORDERS&#45;&#45;ORDERS_contact_phone</title>
<path fill="none" stroke="#cfc7b2" stroke-width="1.2" d="M855.17,-223.02C823.76,-182.27 771.03,-113.86 744.2,-79.05"/>
</g>
<!-- ORDERS&#45;&#45;ORDERS_ordered_at -->
<g id="edge28" class="edge">
<title>ORDERS&#45;&#45;ORDERS_ordered_at</title>
<path fill="none" stroke="#cfc7b2" stroke-width="1.2" d="M829.25,-223.15C784.46,-194.59 720.85,-154.02 683.37,-130.11"/>
</g>
<!-- ORDERS&#45;&#45;ORDERS_decided_at -->
<g id="edge29" class="edge">
<title>ORDERS&#45;&#45;ORDERS_decided_at</title>
<path fill="none" stroke="#cfc7b2" stroke-width="1.2" d="M797.11,-231.08C755.28,-218.67 706.06,-204.07 670.41,-193.49"/>
</g>
<!-- rel_supplies&#45;&#45;PRODUCTS -->
<g id="edge31" class="edge">
<title>rel_supplies&#45;&#45;PRODUCTS</title>
<path fill="none" stroke="#1d4530" stroke-width="2" d="M604.12,-703.43C656.4,-703.58 726.03,-703.79 779.9,-703.94"/>
<text text-anchor="middle" x="747.9" y="-700.35" font-family="DejaVu Sans" font-size="15.00" fill="#1d4530">N</text>
</g>
<!-- rel_is ordered in&#45;&#45;ORDERS -->
<g id="edge33" class="edge">
<title>rel_is ordered in&#45;&#45;ORDERS</title>
<path fill="none" stroke="#1d4530" stroke-width="2" d="M832.23,-454.11C843.42,-408.08 862.01,-331.61 872.53,-288.31"/>
<text text-anchor="middle" x="864.98" y="-315.91" font-family="DejaVu Sans" font-size="15.00" fill="#1d4530">N</text>
</g>
<!-- rel_places&#45;&#45;ORDERS -->
<g id="edge35" class="edge">
<title>rel_places&#45;&#45;ORDERS</title>
<path fill="none" stroke="#1d4530" stroke-width="2" d="M587.06,-257.25C648.07,-256.95 734.08,-256.53 797.21,-256.21"/>
<text text-anchor="middle" x="765.21" y="-252.87" font-family="DejaVu Sans" font-size="15.00" fill="#1d4530">N</text>
</g>
<!-- VENDORS -->
<g id="node1" class="node">
<title>VENDORS</title>
<polygon fill="#2f6b46" stroke="#1d4530" stroke-width="2.5" points="300.22,-735.55 134.22,-735.55 134.22,-670.55 300.22,-670.55 300.22,-735.55"/>
<text text-anchor="start" x="170.72" y="-699.95" font-family="DejaVu Sans" font-weight="bold" font-size="17.00" fill="white">VENDORS</text>
</g>
<!-- VENDORS_vendor_id -->
<g id="node2" class="node">
<title>VENDORS_vendor_id</title>
<ellipse fill="#e6efe7" stroke="#cfc7b2" cx="267.91" cy="-841.55" rx="63" ry="22.5"/>
<text text-anchor="start" x="235.41" y="-839.15" font-family="DejaVu Sans" text-decoration="underline" font-size="13.00">vendor_id</text>
</g>
<!-- VENDORS_company_name -->
<g id="node3" class="node">
<title>VENDORS_company_name</title>
<ellipse fill="#fffdf8" stroke="#cfc7b2" cx="126.94" cy="-823.14" rx="69.85" ry="22.5"/>
<text text-anchor="start" x="73.94" y="-819.74" font-family="DejaVu Sans" font-size="13.00">company_name</text>
</g>
<!-- VENDORS_email -->
<g id="node4" class="node">
<title>VENDORS_email</title>
<ellipse fill="#fffdf8" stroke="#cfc7b2" cx="63.1" cy="-703.05" rx="63" ry="22.5"/>
<text text-anchor="start" x="44.6" y="-705.15" font-family="DejaVu Sans" font-size="13.00">email</text>
<text text-anchor="start" x="51.6" y="-694.55" font-family="DejaVu Sans" font-size="10.00" fill="#5a6672">(UQ)</text>
</g>
<!-- VENDORS_password_hash -->
<g id="node5" class="node">
<title>VENDORS_password_hash</title>
<ellipse fill="#fffdf8" stroke="#cfc7b2" cx="128.26" cy="-582.8" rx="67.12" ry="22.5"/>
<text text-anchor="start" x="77.76" y="-579.4" font-family="DejaVu Sans" font-size="13.00">password_hash</text>
</g>
<!-- VENDORS_created_at -->
<g id="node6" class="node">
<title>VENDORS_created_at</title>
<ellipse fill="#fffdf8" stroke="#cfc7b2" cx="266.39" cy="-564.7" rx="63" ry="22.5"/>
<text text-anchor="start" x="230.39" y="-561.3" font-family="DejaVu Sans" font-size="13.00">created_at</text>
</g>
<!-- PRODUCTS -->
<g id="node7" class="node">
<title>PRODUCTS</title>
<polygon fill="#2f6b46" stroke="#1d4530" stroke-width="2.5" points="945.98,-736.69 779.98,-736.69 779.98,-671.69 945.98,-671.69 945.98,-736.69"/>
<text text-anchor="start" x="810.98" y="-701.09" font-family="DejaVu Sans" font-weight="bold" font-size="17.00" fill="white">PRODUCTS</text>
</g>
<!-- PRODUCTS_product_id -->
<g id="node8" class="node">
<title>PRODUCTS_product_id</title>
<ellipse fill="#e6efe7" stroke="#cfc7b2" cx="969.91" cy="-565.92" rx="63" ry="22.5"/>
<text text-anchor="start" x="934.91" y="-563.52" font-family="DejaVu Sans" text-decoration="underline" font-size="13.00">product_id</text>
</g>
<!-- PRODUCTS_vendor_id -->
<g id="node9" class="node">
<title>PRODUCTS_vendor_id</title>
<ellipse fill="#fffdf8" stroke="#cfc7b2" cx="1038.48" cy="-644.3" rx="63" ry="22.5"/>
<text text-anchor="start" x="1005.98" y="-646.4" font-family="DejaVu Sans" font-size="13.00">vendor_id</text>
<text text-anchor="start" x="1027.98" y="-635.8" font-family="DejaVu Sans" font-size="10.00" fill="#a97514">(FK)</text>
</g>
<!-- PRODUCTS_product_name -->
<g id="node10" class="node">
<title>PRODUCTS_product_name</title>
<ellipse fill="#fffdf8" stroke="#cfc7b2" cx="1051.75" cy="-745.34" rx="64.39" ry="22.5"/>
<text text-anchor="start" x="1003.75" y="-741.94" font-family="DejaVu Sans" font-size="13.00">product_name</text>
</g>
<!-- PRODUCTS_price -->
<g id="node11" class="node">
<title>PRODUCTS_price</title>
<ellipse fill="#fffdf8" stroke="#cfc7b2" cx="1011.23" cy="-829.93" rx="63" ry="22.5"/>
<text text-anchor="start" x="994.23" y="-826.53" font-family="DejaVu Sans" font-size="13.00">price</text>
</g>
<!-- PRODUCTS_quantity -->
<g id="node12" class="node">
<title>PRODUCTS_quantity</title>
<ellipse fill="#fffdf8" stroke="#cfc7b2" cx="883.48" cy="-882.96" rx="63" ry="22.5"/>
<text text-anchor="start" x="855.98" y="-879.56" font-family="DejaVu Sans" font-size="13.00">quantity</text>
</g>
<!-- PRODUCTS_is_active -->
<g id="node13" class="node">
<title>PRODUCTS_is_active</title>
<ellipse fill="#fffdf8" stroke="#cfc7b2" cx="749.42" cy="-853.08" rx="63" ry="22.5"/>
<text text-anchor="start" x="720.42" y="-849.68" font-family="DejaVu Sans" font-size="13.00">is_active</text>
</g>
<!-- PRODUCTS_created_at -->
<g id="node14" class="node">
<title>PRODUCTS_created_at</title>
<ellipse fill="#fffdf8" stroke="#cfc7b2" cx="687.88" cy="-777.17" rx="63" ry="22.5"/>
<text text-anchor="start" x="651.88" y="-773.77" font-family="DejaVu Sans" font-size="13.00">created_at</text>
</g>
<!-- PRODUCTS_updated_at -->
<g id="node15" class="node">
<title>PRODUCTS_updated_at</title>
<ellipse fill="#fffdf8" stroke="#cfc7b2" cx="678.05" cy="-673.44" rx="63" ry="22.5"/>
<text text-anchor="start" x="640.05" y="-670.04" font-family="DejaVu Sans" font-size="13.00">updated_at</text>
</g>
<!-- CUSTOMERS -->
<g id="node16" class="node">
<title>CUSTOMERS</title>
<polygon fill="#2f6b46" stroke="#1d4530" stroke-width="2.5" points="300.07,-286.21 134.07,-286.21 134.07,-221.21 300.07,-221.21 300.07,-286.21"/>
<text text-anchor="start" x="158.07" y="-250.61" font-family="DejaVu Sans" font-weight="bold" font-size="17.00" fill="white">CUSTOMERS</text>
</g>
<!-- CUSTOMERS_customer_id -->
<g id="node17" class="node">
<title>CUSTOMERS_customer_id</title>
<ellipse fill="#e6efe7" stroke="#cfc7b2" cx="263.18" cy="-391.96" rx="63" ry="22.5"/>
<text text-anchor="start" x="222.18" y="-389.56" font-family="DejaVu Sans" text-decoration="underline" font-size="13.00">customer_id</text>
</g>
<!-- CUSTOMERS_full_name -->
<g id="node18" class="node">
<title>CUSTOMERS_full_name</title>
<ellipse fill="#fffdf8" stroke="#cfc7b2" cx="129.09" cy="-374.22" rx="63" ry="22.5"/>
<text text-anchor="start" x="96.59" y="-370.82" font-family="DejaVu Sans" font-size="13.00">full_name</text>
</g>
<!-- CUSTOMERS_email -->
<g id="node19" class="node">
<title>CUSTOMERS_email</title>
<ellipse fill="#fffdf8" stroke="#cfc7b2" cx="63" cy="-253.71" rx="63" ry="22.5"/>
<text text-anchor="start" x="44.5" y="-255.81" font-family="DejaVu Sans" font-size="13.00">email</text>
<text text-anchor="start" x="51.5" y="-245.21" font-family="DejaVu Sans" font-size="10.00" fill="#5a6672">(UQ)</text>
</g>
<!-- CUSTOMERS_password_hash -->
<g id="node20" class="node">
<title>CUSTOMERS_password_hash</title>
<ellipse fill="#fffdf8" stroke="#cfc7b2" cx="128.11" cy="-133.43" rx="67.12" ry="22.5"/>
<text text-anchor="start" x="77.61" y="-130.03" font-family="DejaVu Sans" font-size="13.00">password_hash</text>
</g>
<!-- CUSTOMERS_created_at -->
<g id="node21" class="node">
<title>CUSTOMERS_created_at</title>
<ellipse fill="#fffdf8" stroke="#cfc7b2" cx="266.19" cy="-115.39" rx="63" ry="22.5"/>
<text text-anchor="start" x="230.19" y="-111.99" font-family="DejaVu Sans" font-size="13.00">created_at</text>
</g>
<!-- ORDERS -->
<g id="node22" class="node">
<title>ORDERS</title>
<polygon fill="#2f6b46" stroke="#1d4530" stroke-width="2.5" points="963.44,-288.3 797.44,-288.3 797.44,-223.3 963.44,-223.3 963.44,-288.3"/>
<text text-anchor="start" x="841.44" y="-252.7" font-family="DejaVu Sans" font-weight="bold" font-size="17.00" fill="white">ORDERS</text>
</g>
<!-- ORDERS_order_id -->
<g id="node23" class="node">
<title>ORDERS_order_id</title>
<ellipse fill="#e6efe7" stroke="#cfc7b2" cx="974.94" cy="-443.04" rx="63" ry="22.5"/>
<text text-anchor="start" x="947.44" y="-440.64" font-family="DejaVu Sans" text-decoration="underline" font-size="13.00">order_id</text>
</g>
<!-- ORDERS_customer_id -->
<g id="node24" class="node">
<title>ORDERS_customer_id</title>
<ellipse fill="#fffdf8" stroke="#cfc7b2" cx="1040.68" cy="-390.04" rx="67.7" ry="22.5"/>
<text text-anchor="start" x="999.68" y="-392.14" font-family="DejaVu Sans" font-size="13.00">customer_id</text>
<text text-anchor="start" x="1030.18" y="-381.54" font-family="DejaVu Sans" font-size="10.00" fill="#a97514">(FK)</text>
</g>
<!-- ORDERS_product_id -->
<g id="node25" class="node">
<title>ORDERS_product_id</title>
<ellipse fill="#fffdf8" stroke="#cfc7b2" cx="1097.57" cy="-319.95" rx="63" ry="22.5"/>
<text text-anchor="start" x="1062.57" y="-322.05" font-family="DejaVu Sans" font-size="13.00">product_id</text>
<text text-anchor="start" x="1087.07" y="-311.45" font-family="DejaVu Sans" font-size="10.00" fill="#a97514">(FK)</text>
</g>
<!-- ORDERS_quantity -->
<g id="node26" class="node">
<title>ORDERS_quantity</title>
<ellipse fill="#fffdf8" stroke="#cfc7b2" cx="1125.69" cy="-240.72" rx="63" ry="22.5"/>
<text text-anchor="start" x="1098.19" y="-237.32" font-family="DejaVu Sans" font-size="13.00">quantity</text>
</g>
<!-- ORDERS_unit_price -->
<g id="node27" class="node">
<title>ORDERS_unit_price</title>
<ellipse fill="#fffdf8" stroke="#cfc7b2" cx="1130.54" cy="-165.24" rx="63" ry="22.5"/>
<text text-anchor="start" x="1097.54" y="-161.84" font-family="DejaVu Sans" font-size="13.00">unit_price</text>
</g>
<!-- ORDERS_status -->
<g id="node28" class="node">
<title>ORDERS_status</title>
<ellipse fill="#fffdf8" stroke="#cfc7b2" cx="1109.68" cy="-103.05" rx="63" ry="22.5"/>
<text text-anchor="start" x="1089.18" y="-99.65" font-family="DejaVu Sans" font-size="13.00">status</text>
</g>
<!-- ORDERS_cancellation_reason -->
<g id="node29" class="node">
<title>ORDERS_cancellation_reason</title>
<ellipse fill="#fffdf8" stroke="#cfc7b2" cx="1045.03" cy="-50.02" rx="85.3" ry="22.5"/>
<text text-anchor="start" x="978.53" y="-46.62" font-family="DejaVu Sans" font-size="13.00">cancellation_reason</text>
</g>
<!-- ORDERS_shipping_address -->
<g id="node30" class="node">
<title>ORDERS_shipping_address</title>
<ellipse fill="#fffdf8" stroke="#cfc7b2" cx="876.48" cy="-22.5" rx="75.17" ry="22.5"/>
<text text-anchor="start" x="818.98" y="-19.1" font-family="DejaVu Sans" font-size="13.00">shipping_address</text>
</g>
<!-- ORDERS_contact_phone -->
<g id="node31" class="node">
<title>ORDERS_contact_phone</title>
<ellipse fill="#fffdf8" stroke="#cfc7b2" cx="727.42" cy="-57.28" rx="65.83" ry="22.5"/>
<text text-anchor="start" x="677.92" y="-53.88" font-family="DejaVu Sans" font-size="13.00">contact_phone</text>
</g>
<!-- ORDERS_ordered_at -->
<g id="node32" class="node">
<title>ORDERS_ordered_at</title>
<ellipse fill="#fffdf8" stroke="#cfc7b2" cx="652.33" cy="-110.32" rx="63" ry="22.5"/>
<text text-anchor="start" x="615.83" y="-106.92" font-family="DejaVu Sans" font-size="13.00">ordered_at</text>
</g>
<!-- ORDERS_decided_at -->
<g id="node33" class="node">
<title>ORDERS_decided_at</title>
<ellipse fill="#fffdf8" stroke="#cfc7b2" cx="621.58" cy="-179" rx="63" ry="22.5"/>
<text text-anchor="start" x="585.08" y="-175.6" font-family="DejaVu Sans" font-size="13.00">decided_at</text>
</g>
<!-- rel_supplies -->
<g id="node34" class="node">
<title>rel_supplies</title>
<polygon fill="#fbf1dc" stroke="#a97514" stroke-width="2" points="528.68,-746.21 453.18,-703.21 528.68,-660.21 604.18,-703.21 528.68,-746.21"/>
<text text-anchor="start" x="498.18" y="-700.81" font-family="DejaVu Sans" font-weight="bold" font-size="13.00">supplies</text>
</g>
<!-- rel_is ordered in -->
<g id="node35" class="node">
<title>rel_is ordered in</title>
<polygon fill="#fbf1dc" stroke="#a97514" stroke-width="2" points="822.93,-535.39 742.51,-492.39 822.93,-449.39 903.34,-492.39 822.93,-535.39"/>
<text text-anchor="start" x="775.93" y="-489.99" font-family="DejaVu Sans" font-weight="bold" font-size="13.00">is ordered in</text>
</g>
<!-- rel_places -->
<g id="node36" class="node">
<title>rel_places</title>
<polygon fill="#fbf1dc" stroke="#a97514" stroke-width="2" points="512.07,-300.62 436.57,-257.62 512.07,-214.62 587.57,-257.62 512.07,-300.62"/>
<text text-anchor="start" x="488.57" y="-255.22" font-family="DejaVu Sans" font-weight="bold" font-size="13.00">places</text>
</g>
</g>
</svg>
